<?xml version="1.0" standalone="no"?>
<!DOCTYPE svg PUBLIC "-//W3C//DTD SVG 20010904//EN"
 "http://www.w3.org/TR/2001/REC-SVG-20010904/DTD/svg10.dtd">
<svg version="1.0" xmlns="http://www.w3.org/2000/svg"
 width="200.000000pt" height="200.000000pt" viewBox="0 0 200.000000 200.000000"
 preserveAspectRatio="xMidYMid meet">

	<g transform="translate(0.000000,200.000000) scale(0.100000,-0.100000)"
	fill="#000000" stroke="none">
		<path d="M1077 1740 c-129 -33 -209 -134 -209 -265 0 -152 105 -261 263 -273
63 -4 75 -2 133 27 69 33 104 72 138 148 54 122 -19 295 -148 349 -44 18 -131
25 -177 14z m47 -151 c31 -37 33 -70 6 -114 -25 -41 -75 -53 -119 -30 -57 29
-68 93 -25 144 21 26 33 31 69 31 36 0 48 -5 69 -31z"/>
		<path d="M496 1404 c-15 -39 -5 -100 25 -153 29 -50 157 -186 207 -218 12 -9
22 -21 22 -27 0 -16 -170 -179 -178 -171 -4 4 -7 75 -7 158 l0 151 -97 3 -97
3 -3 -126 c-2 -69 0 -128 3 -130 3 -2 12 8 19 21 7 14 17 25 22 25 7 0 31 46
31 60 0 3 18 21 41 40 37 31 39 32 14 4 -16 -17 -28 -34 -28 -39 0 -5 -18 -30
-41 -57 -22 -27 -39 -53 -37 -59 2 -6 25 16 51 50 56 71 107 123 107 110 0 -5
-16 -23 -35 -40 -35 -31 -50 -63 -18 -38 10 8 4 -3 -12 -23 -17 -20 -35 -37
-41 -37 -16 -1 -47 -38 -40 -49 3 -5 -1 -18 -9 -28 -13 -18 -14 -17 -11 14 2
18 -1 31 -6 30 -7 -3 -14 -449 -9 -588 1 -12 17 -14 98 -12 l98 3 -3 137 -3
137 51 43 c27 24 54 41 59 37 6 -3 45 -55 88 -117 43 -61 95 -134 115 -162 20
-28 37 -56 38 -62 0 -14 32 -24 75 -24 l30 0 -36 -30 c-42 -34 -53 -64 -33
-81 12 -10 29 -4 87 25 l73 38 63 -26 c35 -15 71 -24 82 -21 30 10 24 48 -12
74 l-32 24 6 99 c3 55 10 105 16 111 6 6 11 25 11 43 0 27 5 34 30 43 20 7 30
17 30 30 0 12 3 21 8 21 6 0 64 -42 108 -79 6 -5 9 -33 6 -67 -5 -76 -4 -69
-2 -140 l3 -60 56 4 c31 2 74 0 96 -6 l40 -9 0 198 c0 180 -2 198 -17 203 -12
3 -28 -9 -49 -35 -17 -21 -27 -39 -23 -39 4 0 -1 -9 -11 -20 -10 -11 -22 -17
-27 -14 -5 3 -2 15 8 25 9 11 14 22 11 26 -4 3 14 28 39 55 50 54 51 87 0 41
l-31 -28 29 32 c23 26 32 30 43 21 8 -6 12 -17 9 -23 -2 -7 0 -18 5 -26 5 -9
9 43 9 133 0 178 -4 174 130 163 129 -10 130 -10 130 84 l0 79 -197 -2 c-308
-1 -408 3 -429 19 -16 12 -22 11 -37 -3 -17 -15 -20 -15 -30 -1 -20 26 -48 31
-69 13 -16 -15 -22 -15 -43 -4 -21 11 -34 10 -90 -5 -36 -9 -69 -15 -72 -11
-4 3 -14 -1 -23 -9 -16 -14 -21 -13 -51 12 -41 34 -94 81 -169 148 -146 133
-153 138 -164 109z m173 -256 c82 -79 98 -98 81 -98 -12 0 -170 150 -170 162
0 17 16 5 89 -64z m-129 -21 c0 -2 -24 -25 -52 -52 -38 -36 -42 -39 -15 -10
46 50 49 69 5 29 l-33 -29 27 30 c15 17 37 31 48 32 11 1 20 1 20 0z m361 -20
c-10 -9 -11 -8 -5 6 3 10 9 15 12 12 3 -3 0 -11 -7 -18z m219 3 c0 -5 -4 -10
-10 -10 -5 0 -10 5 -10 10 0 6 5 10 10 10 6 0 10 -4 10 -10z m230 5 c0 -1 -9
-10 -19 -19 -19 -17 -19 -17 -16 1 2 10 4 18 4 19 2 2 31 1 31 -1z m30 2 c0
-2 -12 -14 -27 -28 l-28 -24 24 28 c23 25 31 32 31 24z m58 -5 c14 10 15 10 5
-2 -24 -27 -13 -33 15 -9 l27 24 -21 -25 c-38 -45 -38 -56 1 -20 21 19 34 28
30 20 -15 -27 -88 -110 -93 -106 -2 3 0 11 4 18 5 7 9 20 9 28 0 8 4 21 8 28
12 18 -3 15 -27 -5 -21 -18 -21 -18 -2 5 11 12 15 22 9 22 -16 0 -54 -46 -46
-55 5 -4 2 -5 -5 0 -10 5 -4 17 24 47 22 21 40 34 42 28 3 -7 9 -7 20 2z m249
-10 c-10 -10 -14 -22 -10 -27 5 -4 3 -5 -4 -2 -6 4 -25 -4 -41 -18 -33 -28
-39 -11 -9 23 9 10 14 23 10 27 -5 5 -1 4 8 -3 12 -9 20 -9 35 3 26 20 30 19
11 -3z m115 -5 c-26 -27 -17 -45 10 -20 10 9 20 14 23 11 2 -2 -14 -22 -37
-44 -24 -21 -35 -30 -25 -18 9 11 17 23 17 26 0 5 -31 3 -37 -2 -2 -2 -6 -3
-10 -4 -5 -1 -18 -7 -30 -14 -13 -7 -24 -8 -28 -3 -3 6 -14 8 -25 6 -12 -2
-18 0 -15 6 4 5 11 9 18 9 6 0 24 12 40 28 17 15 27 22 23 15 -13 -23 16 -25
40 -2 13 12 24 19 24 14 0 -5 5 -4 12 3 22 22 22 12 0 -11z m40 -51 c-11 -11
-24 -30 -30 -41 -6 -11 -12 -14 -12 -7 0 8 -5 10 -12 6 -7 -4 4 11 25 35 21
23 35 46 32 51 -4 6 -3 16 2 23 5 8 9 2 11 -17 2 -17 -4 -36 -16 -50z m-232
49 c0 -7 -7 -18 -15 -25 -8 -6 -13 -17 -12 -22 1 -6 -6 -12 -16 -13 -9 -2 -15
1 -11 6 10 17 -9 9 -35 -13 -18 -17 -21 -18 -11 -4 8 11 15 26 15 35 0 29 15
43 30 31 15 -12 39 -5 31 9 -3 4 1 8 9 8 8 0 15 -6 15 -12z m-675 -45 c-14
-27 -28 -50 -30 -50 -3 0 6 23 20 50 14 28 28 50 30 50 3 0 -6 -22 -20 -50z
m207 -47 c11 3 18 0 18 -9 0 -10 22 -14 93 -16 l92 -3 2 -90 c2 -92 -12 -161
-34 -169 -17 -7 -27 53 -20 124 5 60 -3 87 -23 75 -8 -5 -11 -49 -8 -161 4
-134 2 -155 -12 -159 -21 -7 -269 -9 -276 -2 -5 5 -5 329 0 375 1 12 24 45 51
72 l49 50 25 -46 c18 -33 30 -44 43 -41z m128 73 c0 -2 -8 -10 -17 -17 -16
-13 -17 -12 -4 4 13 16 21 21 21 13z m-300 -46 c-11 -22 -23 -40 -25 -40 -3 0
4 18 15 40 11 22 23 40 25 40 3 0 -4 -18 -15 -40z m536 25 c-2 -16 -26 -44
-26 -31 0 5 -8 2 -17 -5 -10 -7 -5 1 11 19 34 37 35 37 32 17z m-99 -20 c0 -8
-4 -12 -9 -9 -5 3 -6 10 -3 15 9 13 12 11 12 -6z m173 -18 c0 -2 -10 -12 -22
-23 l-23 -19 19 23 c18 21 26 27 26 19z m-785 -59 c-14 -37 -55 -90 -55 -73 0
3 14 33 31 66 34 68 51 73 24 7z m910 42 c-3 -5 -12 -10 -18 -10 -7 0 -6 4 3
10 19 12 23 12 15 0z m-268 -25 c0 -8 -4 -12 -9 -9 -5 3 -6 10 -3 15 9 13 12
11 12 -6z m53 12 c0 -2 -10 -12 -22 -23 l-23 -19 19 23 c18 21 26 27 26 19z
m-1084 -16 c22 18 17 4 -6 -16 -19 -18 -20 -17 -19 6 0 13 3 18 6 11 4 -10 8
-10 19 -1z m444 0 c0 -6 -4 -13 -10 -16 -5 -3 -10 1 -10 9 0 9 5 16 10 16 6 0
10 -4 10 -9z m561 -25 c8 -28 12 -306 5 -306 -2 0 -18 13 -37 29 -30 27 -32
31 -21 56 7 15 12 73 12 141 0 103 2 115 17 112 9 -2 20 -16 24 -32z m107 16
c-25 -36 -63 -78 -78 -87 -10 -5 -8 -1 3 13 11 11 16 25 13 30 -3 5 6 20 19
32 14 13 25 20 25 15 0 -5 5 -4 12 3 18 18 21 15 6 -6z m36 -3 c-10 -12 -18
-23 -16 -25 1 -2 -1 -4 -5 -5 -15 -2 -33 -21 -27 -31 3 -5 13 -4 22 4 10 7 6
0 -7 -15 -14 -15 -20 -27 -13 -27 6 0 20 12 31 26 12 16 21 21 21 13 1 -9 8
-5 20 10 11 13 20 19 20 14 0 -5 -18 -26 -40 -48 -28 -27 -37 -42 -30 -50 7
-9 5 -16 -5 -25 -8 -7 -15 -17 -15 -23 0 -6 10 -2 23 9 13 10 1 -2 -27 -28
-27 -26 -52 -46 -55 -43 -2 3 6 15 18 26 12 12 20 27 17 35 -3 8 0 13 6 11 13
-3 20 31 8 38 -5 3 -7 13 -4 23 4 11 -2 8 -15 -8 -11 -14 -21 -20 -21 -14 0 6
9 19 20 29 14 13 17 22 10 29 -7 7 3 24 32 53 43 44 66 60 32 22z m-1007 -8
c1 -10 -11 -31 -27 -46 -16 -16 -27 -33 -23 -38 3 -6 1 -7 -5 -3 -6 4 -9 14
-6 24 5 14 4 14 -4 3 -6 -8 -8 -21 -4 -29 3 -8 -1 -20 -9 -26 -8 -6 -20 -19
-28 -28 -26 -34 0 -18 57 34 l57 52 -63 -65 c-34 -36 -61 -67 -60 -70 2 -2 1
-3 -1 -2 -2 2 -11 -3 -20 -9 -11 -9 -10 -5 2 9 15 17 17 25 7 40 -7 11 -10 12
-7 3 3 -9 -4 -26 -14 -39 -13 -16 -19 -19 -19 -8 0 8 7 18 16 21 8 3 12 10 9
16 -3 6 10 30 31 55 20 25 34 45 31 45 -4 0 67 72 78 80 1 0 1 -8 2 -19z m382
-40 c-9 -25 -9 -42 1 -72 16 -47 8 -58 -28 -38 -22 13 -26 21 -24 49 3 28 50
102 60 95 1 -1 -3 -16 -9 -34z m-231 -6 c-6 -14 -13 -23 -15 -21 -5 5 15 46
22 46 3 0 -1 -11 -7 -25z m93 -39 c-11 -25 -22 -46 -26 -46 -3 0 2 17 11 38 9
20 18 43 21 50 3 7 8 11 10 8 3 -2 -4 -25 -16 -50z m804 -5 c-3 -6 -11 -11
-17 -11 -6 0 -6 6 2 15 14 17 26 13 15 -4z m-859 -31 c-3 -24 -1 -38 5 -35 17
11 9 -9 -20 -54 -17 -25 -28 -48 -25 -52 2 -4 0 -10 -5 -14 -6 -3 -8 5 -5 19
2 14 -1 28 -8 32 -7 4 -10 4 -6 0 8 -10 -23 -47 -34 -40 -4 3 -8 1 -8 -4 0
-17 13 -22 29 -9 14 11 14 10 2 -6 -10 -13 -17 -15 -27 -6 -8 6 -14 9 -14 6 0
-3 -3 -13 -7 -23 -5 -13 -3 -15 7 -9 9 6 11 4 5 -4 -4 -8 -11 -9 -16 -4 -10
10 7 66 40 131 21 42 29 69 11 42 -5 -8 -10 -10 -10 -4 0 16 10 23 26 17 10
-4 11 -10 3 -25 -6 -11 -9 -21 -7 -23 2 -2 17 21 33 51 16 30 31 54 33 54 1 0
1 -18 -2 -40z m-186 6 c0 -15 -25 -49 -76 -102 -42 -43 -66 -63 -53 -44 13 19
45 57 71 83 47 47 67 84 31 56 -15 -11 -14 -10 1 9 24 28 26 28 26 -2z m95
-34 c-1 -21 -7 -47 -13 -57 -8 -16 -10 -12 -7 20 2 36 13 75 20 75 1 0 1 -17
0 -38z m241 -27 l44 -26 -1 -57 c0 -48 -2 -54 -12 -38 -7 11 -24 33 -39 50
l-26 31 -52 -57 c-29 -32 -57 -55 -61 -52 -9 5 -13 -11 -9 -31 1 -5 -5 -4 -12
3 -11 11 -8 18 17 39 17 14 49 43 73 65 l42 39 -21 29 c-19 25 -20 31 -8 46
13 15 14 15 17 1 2 -9 23 -28 48 -42z m711 20 c0 -8 -4 -12 -9 -9 -5 3 -6 10
-3 15 9 13 12 11 12 -6z m-982 -49 c0 -20 -3 -32 -9 -29 -5 4 -7 -1 -3 -11 4
-10 3 -15 -4 -11 -5 4 -7 16 -4 28 3 12 -3 6 -15 -13 -19 -33 -20 -34 -16 -8
14 89 48 119 51 44z m-58 21 c-1 -5 -12 -11 -23 -13 -18 -3 -18 -2 -2 10 10 7
14 17 10 21 -4 5 -1 5 6 1 7 -4 11 -13 9 -19z m225 1 c-7 -7 -12 -8 -12 -2 0
14 12 26 19 19 2 -3 -1 -11 -7 -17z m8 -63 c-18 -19 -36 -32 -40 -30 -5 3 -15
-6 -24 -20 -9 -14 -21 -25 -26 -25 -6 0 6 22 25 49 26 36 41 49 55 46 11 -2
22 0 25 6 4 5 9 9 13 9 3 0 -9 -16 -28 -35z m-316 -22 c-16 -21 -29 -40 -29
-43 0 -3 -4 -11 -9 -18 -10 -16 -1 -27 14 -17 7 4 10 16 7 26 -3 11 -2 17 3
14 4 -3 22 9 39 27 40 41 40 19 0 -27 -17 -19 -28 -35 -23 -35 4 0 -1 -9 -10
-19 -11 -12 -15 -25 -10 -33 4 -7 3 -10 -1 -5 -5 4 -17 0 -27 -10 -10 -9 -18
-12 -18 -7 -1 5 -7 -2 -14 -15 -13 -23 -14 -21 -13 30 1 30 3 46 5 37 2 -10
10 -18 17 -18 9 0 12 -7 9 -17 -4 -13 1 -11 16 6 16 18 18 26 8 32 -7 4 -18 3
-25 -2 -9 -8 -11 -5 -8 11 5 25 85 133 93 126 3 -3 -8 -22 -24 -43z m377 -31
c-16 -20 -29 -40 -30 -44 0 -5 -3 -7 -4 -5 -2 1 -12 -5 -23 -13 -15 -11 -16
-11 -6 0 18 21 15 34 -5 19 -15 -11 -14 -10 1 9 11 12 15 22 11 22 -5 0 2 11
15 25 12 13 26 22 31 20 4 -3 10 -1 14 5 4 6 11 8 16 4 5 -3 -4 -22 -20 -42z
m44 -12 c-5 -15 -3 -18 9 -14 25 10 19 -10 -14 -41 -16 -16 -28 -31 -25 -33 2
-2 -6 -19 -19 -36 -13 -17 -22 -39 -21 -49 2 -9 -1 -15 -6 -11 -5 3 -7 10 -4
15 4 5 1 9 -4 9 -15 0 -14 20 2 20 6 0 21 13 31 27 16 22 17 25 3 20 -11 -4
-14 -2 -10 9 3 7 11 14 18 14 16 0 47 35 38 43 -3 4 -13 1 -22 -5 -13 -10 -14
-10 -3 2 6 8 12 18 12 23 0 4 -6 5 -12 1 -9 -5 -9 -2 1 9 18 23 34 21 26 -3z
m565 5 c-11 -13 -11 -18 0 -28 9 -9 11 -9 6 0 -3 6 -2 14 2 17 5 3 8 -5 7 -17
-3 -29 -2 -29 -25 -10 -18 16 -18 18 -3 35 20 22 31 24 13 3z m-1067 -10 c-3
-9 -8 -14 -10 -11 -3 3 -2 9 2 15 9 16 15 13 8 -4z m1207 -10 c0 -11 -83 -95
-93 -95 -6 0 11 23 38 50 49 50 55 55 55 45z m-1048 -47 c-4 -43 -22 -79 -22
-44 0 11 -4 15 -12 10 -9 -5 -8 -2 1 9 8 10 11 21 6 25 -4 4 -25 -13 -46 -38
-22 -25 -37 -36 -33 -25 6 18 5 19 -9 5 -9 -8 -25 -33 -36 -55 -14 -27 -20
-33 -20 -20 0 11 6 29 14 39 8 10 12 23 8 29 -3 6 -1 7 4 4 6 -4 16 0 23 8 7
8 16 13 20 10 5 -3 25 14 45 37 20 24 34 36 30 28 -6 -11 -3 -10 11 3 10 9 19
17 19 17 0 0 -1 -19 -3 -42z m43 33 c3 -6 -4 -15 -15 -21 -19 -10 -20 -10 -8
9 15 24 15 24 23 12z m369 -59 c3 -5 -10 -24 -29 -42 -19 -19 -35 -30 -35 -24
0 5 -9 -2 -19 -15 -10 -14 -21 -19 -24 -13 -8 11 14 33 37 36 21 3 56 36 56
53 0 17 -15 17 -30 -2 -7 -8 -17 -12 -22 -9 -5 3 -2 14 8 25 16 18 44 14 58
-9z m636 13 c0 -8 -6 -14 -12 -12 -7 1 -11 -5 -10 -13 2 -8 0 -12 -4 -7 -4 4
-21 -5 -38 -20 -17 -15 -11 -6 14 20 24 26 45 47 47 47 2 0 3 -7 3 -15z m-798
-29 c-9 -19 -20 -32 -24 -29 -7 3 30 63 39 63 1 0 -5 -15 -15 -34z m401 24
c25 0 19 -43 -6 -48 -33 -6 -67 7 -67 27 0 25 11 33 35 27 11 -3 28 -6 38 -6z
m-433 -10 c0 -5 -5 -10 -11 -10 -5 0 -7 5 -4 10 3 6 8 10 11 10 2 0 4 -4 4
-10z m316 -5 c-4 -26 -22 -36 -50 -29 -25 6 -34 23 -19 37 3 4 21 7 39 7 23 0
32 -4 30 -15z m512 -44 c-1 -16 -5 -28 -9 -26 -3 3 -19 -9 -34 -25 -16 -17
-25 -30 -19 -30 5 -1 -1 -9 -13 -19 -12 -10 -20 -21 -17 -23 2 -3 -2 -11 -10
-17 -30 -25 -10 20 35 77 24 31 47 64 51 74 11 27 19 22 16 -11z m-648 -16
c-7 -8 -9 -15 -6 -15 4 0 -7 -20 -25 -45 -18 -25 -37 -45 -42 -45 -6 0 0 12
14 26 13 14 24 34 24 44 0 11 9 26 20 34 26 20 31 20 15 1z m502 -15 c-6 -16
-11 -20 -16 -11 -4 6 -2 19 5 27 16 20 21 12 11 -16z m-347 0 c9 -27 -4 -82
-17 -74 -5 3 -7 15 -5 26 4 12 -1 21 -11 25 -18 7 -32 22 -32 36 0 4 13 7 29
7 21 0 32 -6 36 -20z m87 3 c3 -10 3 -35 0 -55 -4 -36 -6 -38 -38 -38 -34 0
-34 0 -34 48 0 56 4 62 41 62 17 0 28 -6 31 -17z m-644 -54 c-2 -27 -7 -49
-13 -49 -13 0 -14 19 -2 47 7 15 6 27 -1 36 -13 15 -5 30 10 21 5 -3 8 -28 6
-55z m-113 8 c-8 -13 -12 -27 -8 -32 5 -4 2 -5 -5 -1 -9 6 -12 2 -10 -10 2
-11 -2 -18 -8 -17 -7 1 -10 -10 -8 -27 2 -16 -1 -32 -6 -35 -6 -4 -10 9 -10
29 0 19 5 38 10 41 6 3 10 11 10 16 0 6 -4 7 -10 4 -5 -3 -10 0 -10 8 0 8 7
17 14 20 11 4 13 1 10 -11 -3 -9 4 -5 16 11 26 33 36 36 15 4z m1163 -16 c1
-26 -4 -43 -16 -52 -15 -13 -16 -12 -3 4 26 32 5 27 -29 -8 -28 -29 -31 -35
-17 -41 19 -7 13 -24 -8 -24 -9 0 -13 10 -11 29 2 29 24 66 34 56 7 -6 42 25
42 38 0 5 -6 7 -13 4 -8 -3 -14 1 -14 9 0 7 4 11 8 8 4 -2 10 0 14 6 10 16 12
12 13 -29z m-149 7 c-3 -28 1 -39 14 -32 8 5 8 2 -2 -9 -20 -26 -29 -21 -26
16 3 37 3 37 10 37 3 0 5 -6 4 -12z m-452 -13 c0 -8 -12 -25 -25 -37 -14 -13
-21 -16 -16 -8 5 8 9 17 10 20 6 33 31 53 31 25z m59 -11 c-4 -9 -9 -15 -11
-12 -3 3 -3 13 1 22 4 9 9 15 11 12 3 -3 3 -13 -1 -22z m-569 -2 c-20 -22 -22
-37 -5 -26 6 4 1 -10 -12 -31 l-24 -38 22 5 c12 4 20 2 16 -3 -3 -5 -17 -9
-31 -9 -25 0 -25 1 -9 25 21 32 20 41 -1 24 -10 -8 -3 5 16 29 18 23 35 42 38
42 4 0 -1 -8 -10 -18z m443 5 c0 -2 -10 -12 -22 -23 l-23 -19 19 23 c18 21 26
27 26 19z m-10 -48 c-7 -11 -14 -18 -17 -15 -3 3 0 12 7 21 18 21 23 19 10 -6z
m260 -23 c0 -34 -16 -41 -34 -14 -22 31 -20 38 9 38 20 0 25 -5 25 -24z m281
-23 c-8 -15 -10 -15 -11 -2 0 17 10 32 18 25 2 -3 -1 -13 -7 -23z m-1049 -5
c-7 -7 -12 -8 -12 -2 0 14 12 26 19 19 2 -3 -1 -11 -7 -17z m1178 2 c0 -5 -5
-10 -11 -10 -5 0 -7 5 -4 10 3 6 8 10 11 10 2 0 4 -4 4 -10z m-407 -50 c14
-11 32 -20 40 -20 8 0 17 -7 21 -15 7 -20 -6 -19 -62 6 -56 26 -56 25 -47 38
9 16 19 14 48 -9z m-93 0 c0 -6 -12 -15 -27 -21 -15 -6 -36 -19 -46 -30 -10
-10 -24 -19 -32 -19 -26 0 -16 29 15 45 17 9 30 20 30 25 0 6 14 10 30 10 17
0 30 -5 30 -10z"/>
		<path d="M1624 1068 l-19 -23 23 19 c12 11 22 21 22 23 0 8 -8 2 -26 -19z"/>
		<path d="M1759 1073 c-13 -15 -17 -22 -8 -15 9 6 19 10 22 7 4 -3 5 -2 2 2 -3
3 0 12 6 20 21 25 3 13 -22 -14z"/>
		<path d="M1696 1061 c-10 -11 -13 -22 -8 -25 5 -3 17 3 26 13 10 11 13 22 8
25 -5 3 -17 -3 -26 -13z m24 5 c0 -2 -8 -10 -17 -17 -16 -13 -17 -12 -4 4 13
16 21 21 21 13z"/>
		<path d="M1539 1088 c0 -2 -2 -11 -4 -21 -3 -15 -1 -16 11 -6 7 6 11 15 8 20
-5 9 -13 12 -15 7z"/>
		<path d="M1576 1071 c-14 -15 -15 -21 -4 -27 7 -4 10 -3 5 1 -4 5 0 17 10 27
9 10 14 18 11 18 -3 0 -13 -9 -22 -19z"/>
		<path d="M1474 938 l-19 -23 23 19 c21 18 27 26 19 26 -2 0 -12 -10 -23 -22z"/>
		<path d="M1526 861 c-18 -18 -24 -31 -17 -36 6 -3 8 -11 5 -17 -5 -7 -2 -8 5
-3 9 5 10 10 2 18 -8 8 -3 19 16 39 15 15 24 28 22 28 -3 0 -18 -13 -33 -29z"/>
		<path d="M509 923 l-24 -28 28 24 c15 14 27 26 27 28 0 8 -8 1 -31 -24z"/>
		<path d="M434 828 l-19 -23 23 19 c21 18 27 26 19 26 -2 0 -12 -10 -23 -22z"/>
		<path d="M712 803 c-5 -10 -7 -24 -4 -32 3 -8 0 -11 -7 -7 -7 5 -9 1 -4 -10 4
-12 3 -15 -5 -10 -8 5 -10 1 -5 -10 5 -14 9 -12 22 12 13 25 23 74 14 74 -1 0
-6 -8 -11 -17z"/>
		<path d="M650 729 c-7 -11 -10 -23 -7 -25 2 -2 9 7 15 21 14 30 7 33 -8 4z"/>
		<path d="M757 713 c-4 -3 -7 -13 -7 -22 1 -13 3 -13 11 2 11 19 8 33 -4 20z"/>
		<path d="M818 662 c-26 -31 -16 -44 13 -16 16 15 29 28 29 29 0 8 -33 -2 -42
-13z m22 4 c0 -2 -8 -10 -17 -17 -16 -13 -17 -12 -4 4 13 16 21 21 21 13z"/>
		<path d="M909 553 c-13 -16 -12 -17 4 -4 16 13 21 21 13 21 -2 0 -10 -8 -17
-17z"/>
		<path d="M1147 453 c-13 -12 -7 -33 8 -33 8 0 15 9 15 20 0 20 -11 26 -23 13z"/>
		<path d="M1529 353 c-13 -16 -12 -17 4 -4 16 13 21 21 13 21 -2 0 -10 -8 -17
-17z"/>
		<path d="M1545 650 c-21 -22 -35 -40 -30 -40 9 0 81 80 73 80 -2 0 -22 -18
-43 -40z"/>
		<path d="M1499 573 c-13 -16 -12 -17 4 -4 16 13 21 21 13 21 -2 0 -10 -8 -17
-17z"/>
	</g>
</svg>
